<svg version="1.1" id="Layer_1" xmlns="http://www.w3.org/2000/svg" xmlns:xlink="http://www.w3.org/1999/xlink" x="0" y="0" viewBox="0 0 137.1 58" style="enable-background:new 0 0 137.1 58" xml:space="preserve" aria-hidden="true"><style></style><defs><path id="SVGID_1_" d="M.6.8h136.5V58H.6z"/></defs><clipPath id="SVGID_00000158727412032290087890000000704570912663182236_"><use xlink:href="#SVGID_1_" style="overflow:visible"/></clipPath><path style="clip-path:url(#SVGID_00000158727412032290087890000000704570912663182236_);fill:#4c565c" d="M39.2 15.5c-.1 0-3.2-.7-3.2-.8 0-1.2.8-3.8.4-5-.1-.3-1.2-1.5-1.5-1.4-1.1.4-1.9 2.2-3 2.6-.4.1-1.4-1.5-1.2-1.7.8-.7 2-.8 2.7-1.5.7-.7 1.2-1.4 1.5-2.3-1.1.3-1.7 1-2.5 1.7s-1.7 1.3-2.5 2.1c-.2.1.2-.2.1-.4-.1-.6-1.1-.8-1.1-1.4-.1-.3-.5-.8-.6-.7-.9 1.1-.7 2.8-1.2 4-.5 1.2-1.1 2.4-1.8 3.5s-1.4 2-2.2 2.9c-.8.8-2.3.9-3.3 1.6-1.1.8-1.6 2.3-2.7 3-1.1.8-2.4 1.2-3.5 2-1 .8-2.5 1.8-3.3 2.8.5 1.2 2 2.4 2.7 3.5.7 1.1.8 2.6 1.6 3.7.8 1 1.9 1.8 2.7 2.9.8 1 1.5 2.1 2.3 3.1.4.5 1.2 1.1 1.3 1.7-1.3 0-2.9-1-4.2-1-1.3 0-2.6-.1-3.9-.1-1.3 0-2.6.5-3.9.5-1.3 0-2.6-.6-3.9-.6-1.3 0-2.6.7-3.9.7 0-1.2-.6-2.6-.3-3.7.2-1.1 1.7-1.9 2.2-3 .5-1.1.7-2.2 1.3-3.2.6-1 1.1-2.1 1.8-3 .7-.9 2.4-1.4 3.2-2.2-.1-1.7-1.6-3.6-1.9-5.3-.7-.3-1.2-.7-1.4-1.6-.2-.5 0-.9.3-1.4.4-.6 1-.5 1.5-1 .1-.1.1.1 0 .1-1 .4-2.2.2-3.2-.2-1-.3-2.3-.9-3-1.5 0-.9 1.4-1.5 1.9-2.2-.5-.8-1.6-.1-2.3-.3.5-1.3 1.3-2.6 1.8-3.9.5-1.3 1-2.4 1.5-3.7 1.1 0 2.1.3 3.2.3s2.2-.3 3.3-.3c1.1 0 2.2-1 3.3-1.1 1.1 0 2.2 1.6 3.3 1.5 1.1 0 2.2-.5 3.3-.5 1.2 0 2.4.6 3.7.6 1.2 0 2.4-1.4 3.6-1.4 1.2 0 2.7 1.2 3.9 1.3 1.1-.8 2-2.3 3.2-2.8 1.2-.6 2.6-1.7 4-1.5.1 0-.6 1.2-.6 1.5-.1.8-.3 1.5 0 2.2 1.6.1 2.7.1 4.3.4-.1 1.8-1.3 2.3-2.5 3.6 1.1.4 2.4.2 3.7.3-.3.9-1.3 1.1-1.9 1.8-.6.7-1.3 1.2-2 1.8.1.1.6-.2.7-.2 1.5 0 3.3.1 4.8.1-.1.6-1.1 1.4-1.4 1.9-.7 1-2.2 2.1-3.2 2.9M19.3 6.8c-1.1 0-2.1.2-3.2.2s-2.1.2-3.2.2S10.8 7 9.7 7c-1 0-1.9.5-2.9.6-.5.8-.7 1.3-1.1 2.1 1.3.5 2.3.5 3.8.7.1.1.2 0 .3 0 .5-.3.9-.8 1.4-.9.6-.1 1.2.3 1.7.3 1.3.1 2.6 0 3.9.1 1.3 0 2.6.4 3.9.4 1.3 0 2.5-.3 3.8-.5 1-.1 1.3-1.5 1.5-2.4.1-.3-.5-.1-.6.1-.7.6-1 1.5-1.3 2.3-1-.5-1.5-1.8-2.1-2.7-.8-.1-1.8-.3-2.7-.3M9 11.4c-.9.9-1.8 1.6-2.7 2.5.2.1.6.1.8.1.9-.1 1.6-1.3 2.5-.7.9-.5.1-1.3.1-2 .1 0 0-.4-.2-.3-.2.1-.4.3-.5.4m5.8 1.3c-.7 0-1.3-.1-1.9.2-.5.2-1 .2-1.4.4-.2.1-.6.2-.5.4 1.4 1.1 3.6.8 4.4 2.6 1.3.7 3 .8 4.4.3 1.2-.5 2.3-1.4 3.2-2.5.4-.3.8-1 .5-1.5-1.4 0-2.9.2-4.3.2-1.5 0-2.9-.1-4.4-.1m-3.8 4c-.4-.2-.8-.6-1.2-.5-.3 0-.5.6-.5.9 0 .8.6 1.5.2 2.2-.2.4-.9.6-.9.8.1 1.3.6 2.7 1.5 3.8 1-.8 2.1-1.5 3.2-2.3 1.1-.7 2.3-1.4 3.4-2.1-1-.2-2.3-.1-3.2-.9-.5-.5-1-.9-1.4-1.4-.1-.3-.6-.3-1.1-.5m26-9.6c0 .1-.2-.1-.3.1 0 .3.2.7.4.7.4.2 1.3-.3 1.4-.5 0-.4-.7-.9-1.5-.3m1.9 3.6c-.1.1-.2.5-.2.6.1.3.8.2 1 0 .9-.7-.6-.7-.8-.6m1.4 3.7c0 .1.3.3.4.3.3-.3.6.2.6-.7 0-.1-.7 0-.8 0-.1 0-.2.3-.2.4M9.1 28.6c-1.2 1.2-2.1 2.6-2.8 4-.4.8-.8 1.7-1.1 2.5-.4.9-.6 1.9-.5 2.8h6.8c1.1 0 2.2-.1 3.3-.2.1 0 .4-.1.3-.2-.8-1-1.5-1.9-2-3-.6-1.1-1.3-2-1.8-3.1-.5-1-1.1-2-1.8-3.1 0 0-.3.1-.4.3"/><path style="clip-path:url(#SVGID_00000158727412032290087890000000704570912663182236_);fill:#4c565c" d="M42.5 17.2c1.3.8 3.5 4 3.4 9.8-.1 2.2-1.1 4.2-1.9 6.3 1 1.9 1.8 3.8 2.9 5.7.6-6.4.6-12.8.6-19.2 0-1.5-.9-3.1-.8-4.7.5-4.6 1.1-9 1.9-13.6 1 4.5 1.3 8.9 1.9 13.6.3 1.7-1 3.1-1 4.8-.3 7 .4 14.2.6 21.2-5.1-.1-10.1.2-15-.1-2.1-.1-3.9-1.5-4.8-3.2-1.1-2.2-.8-4.7-.9-6.9 0-.1-.1-.3-.3-.4-1.1-.3-2.2-.1-3.2-.5-.7-.4-1.2-1.1-1.1-1.9 0-.1.1-.2.2-.2 2.5 0 5-.2 7.5.1 0 2.8 0 5.5.2 8.3 0 .7.6 1.3 1.2 1.5 2.9 1 5.8.4 8.7.4.1-.1.4-.1.3-.3-.7-2-2-3.7-2.6-5.7 1.4-1.6 2.3-3.7 2.5-5.8.4-2.9-1-5.7-3.2-7.6-2.7-2.3-6.6-3-9.9-1.7-3.8 1.3-5.7 5.2-6.6 9.2-.1.6-1 1-1.5 1.5.6.3 1.3-.1 1.5.2.7 1.2-.2 2.9.1 4.4.1.4.9.1 1.3.2.1 0 .2.1.2.2-.2.8-.7 1.4-.5 2.2.1.4.5.7.6.9.3.8-.7 1.2-.6 2 0 0-.1.3.1.3 1.9.1 3.8-.2 5.7.1.5.9 1.2 1.8 1.7 2.9h-9.3c-.5-.9-1.1-1.8-1.1-2.8 0-.5.6-1 .4-1.6 0-.4-.4-.7-.6-1-.1-.2.2-.6.2-.8-.2-.6-1 0-1.1-.4-.4-1.3.3-2.6 0-4 0-.2-.2-.1-.3-.1-1.6-.3-3.2.1-4.8 0-.2 0-.4-.3-.3-.5 1.9-1.8 4-3.3 5.9-5 .8-4.6 3.6-8.7 7.9-10.6 2.8-1.1 7.5-1.4 11.9 1.1m7.6-2c-.3 1.3-.4 2.7.3 3.9.4-1 .8-2.2.8-3.2s-.1-2-.5-2.9c0-.2 0-.7-.1-.5-.6.7-.3 1.8-.5 2.7M.6 47.5s8.3 5.2 23.3-1c0 0 18.9-8.8 27.1 4 0 0-5.8-7-22.2-1.6 0 .1-17.1 6.6-28.2-1.4"/><path style="clip-path:url(#SVGID_00000158727412032290087890000000704570912663182236_);fill:#4c565c" d="M6.3 52.2s9.5 4.3 23 1c0 0 15.7-5.1 22.8 4.9 0 0-5.3-4.6-16.7-2.5-.1-.1-17 3.4-29.1-3.4M64.5 5.2c-1.5-1.4-3-1.9-4.2-1.9-1.7 0-2.8.9-2.8 2.1 0 3.4 7.8 3.4 7.8 9.1 0 2.8-2.1 4.9-5 4.9-1.9 0-3.5-.5-5-1.7v-3.3c1.3 1.7 3 2.6 4.7 2.6 2 0 2.9-1.3 2.9-2.3 0-3.7-7.8-4.1-7.8-9.1 0-2.9 2.2-4.8 5.4-4.8 1.4 0 2.7.4 4 1.3v3.1zM76.4 10.5c-1.3-.9-2.2-1.2-3.3-1.2-2.1 0-3.6 1.6-3.6 4s1.6 3.9 4 3.9c1 0 1.9-.3 3.1-.8v2.3c-.8.4-2.3.7-3.5.7-3.5 0-6-2.4-6-5.9 0-3.9 2.3-6.4 5.8-6.4 1.4 0 2.3.3 3.4.8v2.6zM91.2 13.2c0 3.7-2.6 6.3-6.4 6.3-3.6 0-6.2-2.6-6.2-6.3 0-3.4 2.7-6 6.2-6 3.7 0 6.4 2.5 6.4 6m-10.3 0c0 2.5 1.6 4.2 3.8 4.2 2.5 0 4-1.6 4-4.1 0-2.3-1.7-3.9-4-3.9-2.2-.1-3.8 1.6-3.8 3.8M96.5 7.4h3.7v2.1h-3.7v6.1c0 1.4 1 1.8 1.7 1.8.8 0 1.7-.3 2.7-.9v2.2c-.8.4-2.1.8-2.8.8-2.6 0-3.8-1.6-3.8-3.7V9.5h-2.1v-.2L96.5 5v2.4zM105.3 7.4h3.7v2.1h-3.7v6.1c0 1.4 1 1.8 1.7 1.8.8 0 1.7-.3 2.7-.9v2.2c-.8.4-2.1.8-2.8.8-2.6 0-3.8-1.6-3.8-3.7V9.5H101v-.2l4.4-4.3v2.4zM112.5 5.2c-.8 0-1.4-.6-1.4-1.4 0-.8.6-1.4 1.4-1.4.8 0 1.4.6 1.4 1.4 0 .8-.6 1.4-1.4 1.4m1.2 14h-2.3V7.4h2.3v11.8zM123.9 10.5c-1.3-.9-2.6-1.2-3.4-1.2-.9 0-1.6.4-1.6 1.1 0 .5.8 1.2 2.9 2.4 1.9 1.3 2.7 2.1 2.7 3.3 0 2.1-1.7 3.5-3.9 3.5-1.4 0-2.6-.3-4.1-1.1V16c1.5 1.1 2.9 1.6 3.9 1.6.9-.1 1.7-.5 1.7-1.3 0-1.6-5.5-2.5-5.5-5.7 0-2 1.5-3.2 3.9-3.2 1.1 0 2.2.3 3.5 1v2.1zM129.5 9c.9-1.1 2.3-1.8 3.6-1.8 2.3 0 4 1.6 4 4.8v7.2h-2.3v-7.3c0-1.7-.9-2.9-2.3-2.9-1 0-1.8.5-2.9 1.7v8.5h-2.3V1.3h2.3V9zM55.3 21.6h5.1c3.8 0 5.4 2.3 5.4 4.6 0 1.9-.9 3.1-2.7 3.8 2.6.5 4.3 2.3 4.3 4.7 0 2.2-1.6 4.8-6.1 4.8h-6.1V21.6zm2.5 7.6h1.7c2.5 0 3.7-.9 3.7-2.9 0-1.3-.8-2.5-3.1-2.5h-2.3v5.4zm0 8H61c3 0 3.8-1.5 3.8-2.8 0-1.6-1.2-2.8-3.9-2.8h-3.1v5.6zM81.3 33.5c0 3.7-2.6 6.3-6.3 6.3-3.6 0-6.2-2.6-6.2-6.3 0-3.4 2.7-6 6.2-6 3.7 0 6.3 2.5 6.3 6m-10.1 0c0 2.5 1.5 4.2 3.8 4.2 2.4 0 4-1.6 4-4.1 0-2.3-1.7-3.9-4-3.9-2.2-.1-3.8 1.5-3.8 3.8M86.4 27.7v2.7h.1c1.2-2.1 2.3-2.9 3.4-2.9.9 0 1.8.4 2.8 1.4l-1.2 2c-.7-.7-1.6-1.2-2.2-1.2-1.6 0-2.8 1.6-2.8 3.6v6.2h-2.3V27.7h2.2zM103.9 39.5H99c-3.5 0-5.7-2.4-5.7-6.2 0-3.4 2.4-5.9 5.8-5.9.8 0 1.5.1 2.4.5v-6.4h2.3v18zm-2.4-9.5c-.8-.3-1.4-.4-2.2-.4-2.2 0-3.7 1.6-3.7 4.1 0 2.2.9 3.9 3.6 3.9h2.3V30zM116.7 38.3c-1.4.9-2.7 1.4-4.6 1.4-3.6 0-5.7-3-5.7-6.3 0-3.6 2.2-6 5.4-6 3.1 0 5.1 2.1 5.1 6.5h-8.2c.4 2.3 1.7 3.6 3.9 3.6 1.4 0 2.7-.5 4.1-1.4v2.2zm-2-5.9c-.1-1.8-1.1-2.9-2.7-2.9-1.8 0-2.8 1.1-3.1 2.9h5.8zM121.9 27.7v2.7h.1c1.2-2.1 2.3-2.9 3.4-2.9.9 0 1.8.4 2.8 1.4l-1.2 2c-.7-.7-1.6-1.2-2.2-1.2-1.6 0-2.8 1.6-2.8 3.6v6.2h-2.3V27.7h2.2zM136.5 30.7c-1.3-.9-2.5-1.2-3.4-1.2-.9 0-1.5.4-1.5 1.1 0 .5.8 1.2 2.8 2.4 1.9 1.3 2.6 2.1 2.6 3.3 0 2.1-1.6 3.5-3.8 3.5-1.4 0-2.5-.3-4-1.1v-2.5c1.5 1.1 2.9 1.6 3.8 1.6.9-.1 1.7-.5 1.7-1.3 0-1.6-5.4-2.5-5.4-5.7 0-2 1.5-3.2 3.8-3.2 1.1 0 2.2.3 3.4 1v2.1zM66.4 45.6v1.1c-1.6-.8-3.1-1.3-4.7-1.3s-3 .6-4.1 1.7c-1.1 1.1-1.6 2.5-1.6 4.1 0 1.7.6 3.1 1.7 4.1 1.1 1.1 2.5 1.6 4.2 1.6 1.4 0 3-.4 4.7-1.3v1.1c-1.6.9-3.1 1.3-4.7 1.3-2 0-3.7-.6-5-1.9-1.3-1.3-2-2.9-2-4.8s.7-3.5 2-4.8c1.4-1.3 3-1.9 4.9-1.9 1.5-.1 3 .3 4.6 1M74.9 44.5c1.9 0 3.6.7 4.9 2 1.3 1.3 2 2.9 2 4.8s-.7 3.5-2 4.8c-1.3 1.3-3 2-4.9 2-1.9 0-3.6-.7-4.9-2-1.3-1.3-2-2.9-2-4.8s.7-3.5 2-4.8c1.3-1.3 3-2 4.9-2m0 12.6c1.6 0 3-.6 4.1-1.7 1.1-1.1 1.7-2.5 1.7-4.1 0-1.6-.6-3-1.7-4.1-1.1-1.1-2.5-1.7-4.1-1.7-1.6 0-3 .6-4.2 1.7-1.1 1.1-1.7 2.5-1.7 4.1 0 1.6.6 3 1.7 4.1 1.2 1.1 2.6 1.7 4.2 1.7M94 44.7h1v7.2c0 2-.5 3.5-1.5 4.5-1 1.1-2.3 1.6-4 1.6-1.6 0-2.9-.5-4-1.6-1-1.1-1.5-2.5-1.5-4.3v-7.4h1V52c0 1.6.4 2.8 1.2 3.7.8.9 1.9 1.3 3.2 1.3 1.3 0 2.4-.4 3.2-1.3.8-.9 1.2-2.2 1.2-3.8v-7.2zM109.6 44.7v13.1h-.9l-9.9-11.4v11.4h-1.1V44.7h.9l9.9 11.5V44.7zM123.5 45.6v1.1c-1.6-.8-3.1-1.3-4.7-1.3s-3 .6-4.1 1.7c-1.1 1.1-1.6 2.5-1.6 4.1 0 1.7.6 3.1 1.7 4.1 1.1 1.1 2.5 1.6 4.2 1.6 1.4 0 3-.4 4.7-1.3v1.1c-1.6.8-3.1 1.2-4.6 1.2-2 0-3.7-.6-5-1.9-1.3-1.3-2-2.9-2-4.8s.7-3.5 2-4.8c1.4-1.3 3-1.9 4.9-1.9 1.4 0 2.9.4 4.5 1.1M125.6 44.7h1v13.1h-1zM130.6 44.7V57h6.5v.8h-7.5V44.7z"/></svg>